<?xml version="1.0" standalone="no"?><!DOCTYPE svg PUBLIC "-//W3C//DTD SVG 1.1//EN" "http://www.w3.org/Graphics/SVG/1.1/DTD/svg11.dtd"><svg t="1704284853613" class="icon" viewBox="0 0 1024 1024" version="1.1" xmlns="http://www.w3.org/2000/svg" p-id="4563" xmlns:xlink="http://www.w3.org/1999/xlink" width="200" height="200"><path d="M511.737522 980.347804c-62.223157 0-122.595152-12.190647-179.437765-36.233226-54.895261-23.217794-104.190991-56.45478-146.522098-98.783841-42.329061-42.330084-75.566046-91.626837-98.783841-146.523121C62.951239 641.965004 50.760592 581.593008 50.760592 519.368828c0-62.22418 12.190647-122.596176 36.233226-179.438789 23.217794-54.895261 56.45478-104.192014 98.783841-146.522098 42.330084-42.330084 91.626837-75.565023 146.522098-98.783841 56.842613-24.042579 117.214608-36.233226 179.437765-36.233226 62.225203 0 122.597199 12.190647 179.440835 36.233226 54.895261 23.218818 104.190991 56.453756 146.522098 98.783841 42.329061 42.330084 75.565023 91.626837 98.783841 146.522098 24.041556 56.842613 36.232203 117.214608 36.232203 179.438789 0 62.22418-12.190647 122.596176-36.232203 179.438789-23.218818 54.896284-56.45478 104.192014-98.783841 146.523121-42.330084 42.329061-91.626837 75.566046-146.522098 98.783841C634.333698 968.156134 573.961702 980.347804 511.737522 980.347804zM511.737522 93.183286c-234.998175 0-426.184519 191.186344-426.184519 426.185542S276.738323 945.555393 511.737522 945.555393c234.999199 0 426.185542-191.186344 426.185542-426.185542S746.736721 93.183286 511.737522 93.183286z" p-id="4564"></path><path d="M236.272703 692.269713l-8.019651-26.419719-52.874231-152.240333-41.606607-116.942409c19.614733 0.291642 37.069267 0.432859 52.356438 0.432859 9.372461 0 24.085558-0.14224 44.137243-0.432859 3.325745 12.857842 5.928013 22.60995 7.80885 29.256324 2.605338 8.66945 7.522324 24.346501 14.756075 47.02706l31.892361 102.502535c3.180436 10.692526 7.088442 24.63712 11.717879 41.826618l9.951653-24.921599 75.511811-165.56992c1.299599-3.032056 2.778276-6.500041 4.436032-10.401908 1.658779-3.897773 4.290723-10.472516 7.897877-19.720134 20.945031 0.291642 37.773302 0.432859 50.484811 0.432859 7.944949 0 23.689538-0.14224 47.236837-0.432859-14.719236 27.431769-31.383778 59.482743-49.997718 96.151897l-74.671677 148.126642c-7.214309 14.437827-15.294334 31.546483-24.241101 51.323922-24.258497-0.287549-41.586141-0.432859-51.980885-0.432859C281.394367 691.836855 263.129374 691.982164 236.272703 692.269713z" p-id="4565"></path><path d="M492.610906 692.269713c8.320503-115.930359 12.482289-205.152427 12.482289-267.666202l-0.216941-27.936259c25.28385 0.291642 42.188868 0.432859 50.716078 0.432859 3.897773 0 19.431561-0.14224 46.596248-0.432859-2.612501 32.483832-4.712325 63.235207-6.303566 92.254124-2.029216 40.424688-3.481288 78.214363-4.351098 113.369024-0.86981 35.156708-1.302669 65.149812-1.302669 89.980337l-44.373627-0.432859C537.198403 691.836855 519.450181 691.982164 492.610906 692.269713z" p-id="4566"></path><path d="M644.201439 692.269713l4.300956-55.43966 5.593392-108.279099 2.365884-76.662007c0.14224-8.229428 0.216941-16.457834 0.216941-24.687262 0-6.205329-0.074701-16.384156-0.216941-30.534434 19.064194 0.432859 34.371832 0.649799 45.928029 0.649799 11.118222 0 26.352181-0.324388 45.706995-0.975211 19.351744-0.649799 35.746132-0.974188 49.179073-0.974188 19.351744 0 33.685193 1.227967 43.00035 3.681856 9.312086 2.455935 17.723663 6.316869 25.235754 11.585873 7.512091 5.272074 13.72049 11.444657 18.631336 18.515702 4.909823 7.076162 8.591679 15.125489 11.047614 24.145933 2.455935 9.024537 3.684926 18.228153 3.684926 27.610848 0 19.348674-4.692882 37.031405-14.0766 53.057403-9.385764 16.024975-22.595624 28.010961-39.630602 35.948747-17.036002 7.941879-36.165688 11.911284-57.388035 11.911284-7.795547 0-16.821107-0.86674-27.069519-2.598174-1.157359-6.639211-3.322675-16.529465-6.496971-29.668717-3.177366-13.136182-5.776563-22.880103-7.79657-29.234835 6.351662 1.299599 12.993942 1.948375 19.923772 1.948375 14.58109 0 25.445532-3.498684 32.593326-10.503215 7.145747-7.001461 10.720156-15.555278 10.720156-25.662473 0-4.90573-0.795109-9.274224-2.382257-13.101389-1.591241-3.823072-4.114714-6.963599-7.579629-9.420557-3.464915-2.452865-7.29208-4.040013-11.477402-4.764514-4.189416-0.720408-8.953929-1.082658-14.293541-1.082658-5.197372 0-10.610662 0.146333-16.241916 0.432859l-18.190291 1.299599c-1.857301 27.864628-3.285836 58.832943-4.28663 92.903923-1.857301 62.08194-2.785439 99.329263-2.785439 111.744014l0 28.1532-43.132356-0.432859C683.212942 691.836855 668.186713 691.982164 644.201439 692.269713z" p-id="4567"></path></svg>