<?xml version="1.0" standalone="no"?><!DOCTYPE svg PUBLIC "-//W3C//DTD SVG 1.1//EN" "http://www.w3.org/Graphics/SVG/1.1/DTD/svg11.dtd"><svg t="1704285055398" class="icon" viewBox="0 0 1024 1024" version="1.1" xmlns="http://www.w3.org/2000/svg" p-id="8671" xmlns:xlink="http://www.w3.org/1999/xlink" width="200" height="200"><path d="M568.832 707.584c-14.336 0-27.136-9.216-31.744-22.528l-21.504-62.464c-0.512-1.536-2.048-2.56-3.584-2.56H400.384c-1.536 0-3.072 1.024-3.584 2.56L374.272 685.568c-5.12 12.8-17.408 20.992-31.232 20.992-4.096 0-7.68-0.512-11.264-2.048-17.408-6.144-26.624-24.576-20.992-41.984l116.224-323.584c4.608-13.312 17.408-22.528 31.744-22.528 14.848 0 27.648 9.216 31.744 23.04l110.592 323.584c5.632 17.408-4.096 36.352-21.504 42.496-3.072 1.536-6.656 2.048-10.752 2.048zM457.728 460.288c-1.536 0-3.072 1.024-3.584 2.56l-30.208 83.968c-0.512 1.024 0 2.56 0.512 3.584s2.048 1.536 3.072 1.536h58.88c1.024 0 2.56-0.512 3.072-1.536 0.512-1.024 1.024-2.048 0.512-3.584L461.312 462.848c-0.512-1.536-2.048-2.56-3.584-2.56z m224.768 244.736c-18.944 0-33.792-14.848-33.792-32.768v-322.56c0-17.92 15.36-32.768 33.792-32.768s33.792 14.848 33.792 32.768v323.072c0 17.408-15.36 32.256-33.792 32.256z" p-id="8672"></path><path d="M955.904 452.096c-4.608-244.224-194.048-441.344-426.496-441.344h-34.304c-232.448 0-421.888 197.12-426.496 441.344-40.96 23.552-68.608 67.072-68.608 117.76v68.096c0 75.264 61.44 136.704 136.704 136.704s136.704-61.44 136.704-136.704v-68.096c0-74.752-60.416-135.68-135.168-136.192C151.552 235.52 306.688 78.848 495.616 78.848h34.304c188.928 0 343.552 156.672 356.864 354.304-74.752 0.512-135.168 61.44-135.168 136.192v68.096c0 61.44 41.472 113.152 97.28 130.048-50.688 66.56-122.88 113.664-204.8 132.608-11.776-34.816-44.032-57.856-80.384-58.368-47.104 0-85.504 38.4-85.504 85.504s38.4 85.504 85.504 85.504c29.696 0 56.832-15.36 72.192-40.448 124.416-22.016 232.96-97.28 296.96-206.336 53.248-18.432 91.648-68.608 91.648-128.512v-68.096c0-50.176-27.648-93.696-68.608-117.248zM205.312 569.856v68.096c0 37.888-30.72 68.096-68.096 68.096s-68.096-30.72-68.096-68.096v-68.096c0-37.888 30.72-68.096 68.096-68.096S205.312 531.968 205.312 569.856z m751.104 68.096c0 36.352-29.184 66.56-65.024 68.096l-2.56-1.024c0 0.512-0.512 1.024-1.024 1.536-37.376 0-67.584-30.72-67.584-68.096v-68.096c0-37.888 30.72-68.096 68.096-68.096 37.888 0 68.096 30.72 68.096 68.096v67.584z" p-id="8673"></path></svg>